<?xml version="1.0" encoding="UTF-8" standalone="no"?>
<!-- Created with Inkscape (http://www.inkscape.org/) -->

<svg
   version="1.1"
   id="svg1"
   width="465.60132"
   height="160.08133"
   viewBox="0 0 465.60132 160.08133"
   xmlns="http://www.w3.org/2000/svg"
   xmlns:svg="http://www.w3.org/2000/svg">
  <defs
     id="defs1">
    <clipPath
       clipPathUnits="userSpaceOnUse"
       id="clipPath8">
      <path
         d="M 0,120.061 H 349.201 V 0 H 0 Z"
         transform="translate(-331.63131,-111.9238)"
         id="path8" />
    </clipPath>
    <clipPath
       clipPathUnits="userSpaceOnUse"
       id="clipPath10">
      <path
         d="M 0,120.061 H 349.201 V 0 H 0 Z"
         transform="translate(-27.5791,-52.060502)"
         id="path10" />
    </clipPath>
    <clipPath
       clipPathUnits="userSpaceOnUse"
       id="clipPath12">
      <path
         d="M 0,120.061 H 349.201 V 0 H 0 Z"
         transform="translate(-69.122102,-11.161098)"
         id="path12" />
    </clipPath>
    <clipPath
       clipPathUnits="userSpaceOnUse"
       id="clipPath14">
      <path
         d="M 0,120.061 H 349.201 V 0 H 0 Z"
         transform="translate(-97.7764,-38.018598)"
         id="path14" />
    </clipPath>
    <clipPath
       clipPathUnits="userSpaceOnUse"
       id="clipPath16">
      <path
         d="M 0,120.061 H 349.201 V 0 H 0 Z"
         transform="translate(-138.0234,-4.8964976)"
         id="path16" />
    </clipPath>
    <clipPath
       clipPathUnits="userSpaceOnUse"
       id="clipPath18">
      <path
         d="M 0,120.061 H 349.201 V 0 H 0 Z"
         transform="translate(-197.7129,-43.923799)"
         id="path18" />
    </clipPath>
    <clipPath
       clipPathUnits="userSpaceOnUse"
       id="clipPath20">
      <path
         d="M 0,120.061 H 349.201 V 0 H 0 Z"
         transform="translate(-224.99901,-52.060502)"
         id="path20" />
    </clipPath>
    <clipPath
       clipPathUnits="userSpaceOnUse"
       id="clipPath22">
      <path
         d="M 0,120.061 H 349.201 V 0 H 0 Z"
         transform="translate(-284.97511)"
         id="path22" />
    </clipPath>
    <clipPath
       clipPathUnits="userSpaceOnUse"
       id="clipPath24">
      <path
         d="M 0,120.061 H 349.201 V 0 H 0 Z"
         transform="translate(-329.61471)"
         id="path24" />
    </clipPath>
  </defs>
  <g
     id="layer-MC0">
    <path
       id="path1"
       d="M 11.338,69.016 H 62.362 V 120.04 H 11.338 Z"
       style="fill:#4ea93f;fill-opacity:1;fill-rule:nonzero;stroke:none"
       transform="matrix(1.3333333,0,0,-1.3333333,0,160.08133)" />
    <path
       id="path2"
       d="m 0,0 -2.088,-36.868 -4.538,23.258 h -9.505 L -20.739,-37.228 -23.187,0 h -9.433 l 5.185,-51.053 h 10.224 l 5.833,27.434 5.833,-27.434 H 4.608 L 9.432,0 Z"
       style="fill:#000000;fill-opacity:1;fill-rule:nonzero;stroke:none"
       transform="matrix(1.3333333,0,0,-1.3333333,157.5396,1.3333333e-4)" />
    <path
       id="path3"
       d="M 0,0 V -7.706 H 10.873 V -43.348 H 0 v -7.705 h 31.251 v 7.705 H 20.306 V -7.706 H 31.251 V 0 Z"
       style="fill:#000000;fill-opacity:1;fill-rule:nonzero;stroke:none"
       transform="matrix(1.3333333,0,0,-1.3333333,180.7668,1.3333333e-4)" />
    <path
       id="path4"
       d="M 0,0 V -33.7 L -14.402,0 h -12.241 v -51.053 h 9.145 v 37.01 l 16.346,-37.01 H 9.144 L 9.144,0 Z"
       style="fill:#000000;fill-opacity:1;fill-rule:nonzero;stroke:none"
       transform="matrix(1.3333333,0,0,-1.3333333,272.7384,1.3333333e-4)" />
    <path
       id="path5"
       d="m 0,0 v -8.641 h 15.914 v -42.412 h 9.217 V -8.641 H 41.044 V 0 Z"
       style="fill:#000000;fill-opacity:1;fill-rule:nonzero;stroke:none"
       transform="matrix(1.3333333,0,0,-1.3333333,293.2776,1.3333333e-4)" />
    <path
       id="path6"
       d="m 0,0 v -51.053 h 34.059 v 8.425 H 9.289 v 13.825 h 19.658 v 8.352 H 9.289 v 12.026 h 24.77 V 0 Z"
       style="fill:#000000;fill-opacity:1;fill-rule:nonzero;stroke:none"
       transform="matrix(1.3333333,0,0,-1.3333333,359.5176,1.3333333e-4)" />
    <path
       id="path7"
       d="M 0,0 H -9.073 V -15.266 H 0 c 5.256,0 8.28,2.88 8.28,7.705 C 8.28,-3.457 5.256,0 0,0 m -1.152,-23.618 h -7.849 v -19.298 h -9.361 V 8.137 H 0 c 12.169,0 17.569,-7.633 17.569,-15.842 0,-6.841 -4.032,-12.241 -9.72,-13.969 l 9.432,-21.242 H 7.128 Z"
       style="fill:#000000;fill-opacity:1;fill-rule:nonzero;stroke:none"
       transform="matrix(1.3333333,0,0,-1.3333333,442.17507,10.8496)"
       clip-path="url(#clipPath8)" />
    <path
       id="path9"
       d="M 0,0 H 11.665 L -6.192,-21.386 11.736,-51.053 H 0.647 l -13.033,22.25 -5.904,-7.129 v -15.121 h -9.289 V 0 h 9.289 v -22.826 z"
       style="fill:#000000;fill-opacity:1;fill-rule:nonzero;stroke:none"
       transform="matrix(1.3333333,0,0,-1.3333333,36.772133,90.667333)"
       clip-path="url(#clipPath10)" />
    <path
       id="path11"
       d="m 0,0 c 3.528,3.528 3.528,11.089 3.528,15.337 0,4.248 0,11.809 -3.528,15.337 -1.944,1.944 -4.393,2.808 -7.2,2.808 -2.809,0 -5.257,-0.864 -7.201,-2.808 -3.529,-3.528 -3.529,-11.089 -3.529,-15.337 0,-4.248 0,-11.809 3.529,-15.337 1.944,-1.944 4.392,-2.809 7.201,-2.809 2.807,0 5.256,0.865 7.2,2.809 m -20.81,-5.833 c -5.616,5.616 -6.552,13.033 -6.552,21.17 0,8.137 0.936,15.554 6.552,21.17 3.745,3.744 8.425,5.328 13.61,5.328 5.184,0 9.864,-1.584 13.608,-5.328 5.617,-5.616 6.553,-13.033 6.553,-21.17 0,-8.137 -0.936,-15.554 -6.553,-21.17 -3.744,-3.744 -8.424,-5.328 -13.608,-5.328 -5.185,0 -9.865,1.584 -13.61,5.328"
       style="fill:#000000;fill-opacity:1;fill-rule:nonzero;stroke:none"
       transform="matrix(1.3333333,0,0,-1.3333333,92.1628,145.19987)"
       clip-path="url(#clipPath12)" />
    <path
       id="path13"
       d="M 0,0 V -37.011 H -9.145 V 14.042 H 3.097 l 14.401,-33.699 v 33.699 h 9.145 V -37.011 H 16.346 Z"
       style="fill:#000000;fill-opacity:1;fill-rule:nonzero;stroke:none"
       transform="matrix(1.3333333,0,0,-1.3333333,130.36853,109.38987)"
       clip-path="url(#clipPath14)" />
    <path
       id="path15"
       d="m 0,0 c -5.688,5.544 -6.408,13.465 -6.408,21.602 0,8.136 1.08,15.625 6.696,21.242 3.744,3.744 8.785,5.256 13.97,5.256 12.961,0 18.577,-8.569 18.577,-17.138 h -9.36 C 23.33,35.139 21.098,39.747 14.258,39.747 4.032,39.747 3.024,28.658 3.024,21.602 3.024,14.617 3.816,3.24 13.609,3.24 c 6.553,0 10.225,4.393 10.225,11.521 H 11.81 v 7.705 H 32.691 V -3.889 H 26.643 L 25.202,1.943 C 24.051,-0.864 20.018,-4.896 12.89,-4.896 8.209,-4.896 3.601,-3.528 0,0"
       style="fill:#000000;fill-opacity:1;fill-rule:nonzero;stroke:none"
       transform="matrix(1.3333333,0,0,-1.3333333,184.0312,153.55267)"
       clip-path="url(#clipPath16)" />
    <path
       id="path17"
       d="M 0,0 H -9.073 V -15.266 H 0 c 5.256,0 8.28,2.88 8.28,7.705 C 8.28,-3.457 5.256,0 0,0 m -1.152,-23.618 h -7.849 v -19.298 h -9.361 V 8.137 H 0 c 12.169,0 17.569,-7.633 17.569,-15.842 0,-6.841 -4.032,-12.241 -9.72,-13.969 l 9.432,-21.242 H 7.128 Z"
       style="fill:#000000;fill-opacity:1;fill-rule:nonzero;stroke:none"
       transform="matrix(1.3333333,0,0,-1.3333333,263.6172,101.51627)"
       clip-path="url(#clipPath18)" />
    <path
       id="path19"
       d="M 0,0 H 34.059 V -8.425 H 9.288 V -20.45 h 19.658 v -8.353 H 9.288 v -13.825 h 24.771 v -8.425 H 0 Z"
       style="fill:#000000;fill-opacity:1;fill-rule:nonzero;stroke:none"
       transform="matrix(1.3333333,0,0,-1.3333333,299.99867,90.667333)"
       clip-path="url(#clipPath20)" />
    <path
       id="path21"
       d="m 0,0 c -9.36,0 -19.514,5.544 -19.514,17.354 h 9.505 c 0,-6.625 5.041,-9.362 10.154,-9.362 5.04,0 10.224,2.089 10.224,7.561 0,3.6 -2.952,5.545 -6.625,6.193 l -7.704,1.296 c -8.641,1.512 -14.186,5.977 -14.186,14.113 0,9.145 8.137,15.913 18.362,15.913 10.657,0 18.433,-6.84 18.578,-16.057 H 9.433 c -0.216,4.608 -3.384,8.136 -9.361,8.136 -4.68,0 -9.073,-2.376 -9.073,-7.272 0,-3.168 2.448,-5.112 7.057,-5.904 L 5.185,30.818 C 13.537,29.45 19.586,24.698 19.586,16.129 19.586,5.185 9.793,0 0,0"
       style="fill:#000000;fill-opacity:1;fill-rule:nonzero;stroke:none"
       transform="matrix(1.3333333,0,0,-1.3333333,379.9668,160.08133)"
       clip-path="url(#clipPath22)" />
    <path
       id="path23"
       d="m 0,0 c -9.36,0 -19.514,5.544 -19.514,17.354 h 9.505 c 0,-6.625 5.041,-9.362 10.154,-9.362 5.04,0 10.224,2.089 10.224,7.561 0,3.6 -2.952,5.545 -6.625,6.193 l -7.704,1.296 c -8.641,1.512 -14.186,5.977 -14.186,14.113 0,9.145 8.137,15.913 18.362,15.913 10.657,0 18.433,-6.84 18.578,-16.057 H 9.433 c -0.216,4.608 -3.384,8.136 -9.361,8.136 -4.68,0 -9.073,-2.376 -9.073,-7.272 0,-3.168 2.448,-5.112 7.057,-5.904 L 5.185,30.818 C 13.537,29.45 19.586,24.698 19.586,16.129 19.586,5.185 9.793,0 0,0"
       style="fill:#000000;fill-opacity:1;fill-rule:nonzero;stroke:none"
       transform="matrix(1.3333333,0,0,-1.3333333,439.48627,160.08133)"
       clip-path="url(#clipPath24)" />
  </g>
</svg>
